<?xml version="1.0" encoding="UTF-8"?>
<!DOCTYPE svg PUBLIC "-//W3C//DTD SVG 1.1//EN" "http://www.w3.org/Graphics/SVG/1.1/DTD/svg11.dtd">
<!-- Creator: CorelDRAW X6 -->
<svg xmlns="http://www.w3.org/2000/svg" xml:space="preserve" width="81.601mm" height="83.1998mm" version="1.1" style="shape-rendering:geometricPrecision; text-rendering:geometricPrecision; image-rendering:optimizeQuality; fill-rule:evenodd; clip-rule:evenodd"
viewBox="0 0 8160 8320"
 xmlns:xlink="http://www.w3.org/1999/xlink">
 <defs>
  <style type="text/css">
   <![CDATA[
    .fil2 {fill:#FEFEFE;fill-rule:nonzero}
    .fil0 {fill:url(#id0)}
    .fil1 {fill:url(#id1)}
   ]]>
  </style>
  <linearGradient id="id0" gradientUnits="userSpaceOnUse" x1="5021.52" y1="2099.95" x2="5021.52" y2="4012.37">
   <stop offset="0" style="stop-color:#144F3E"/>
   <stop offset="0.0901961" style="stop-color:#145241"/>
   <stop offset="0.2" style="stop-color:#23C499"/>
   <stop offset="0.258824" style="stop-color:#26CCA0"/>
   <stop offset="0.431373" style="stop-color:black"/>
   <stop offset="0.54902" style="stop-color:#051813"/>
   <stop offset="0.768627" style="stop-color:#1CBF94"/>
   <stop offset="0.839216" style="stop-color:#22C79B"/>
   <stop offset="0.909804" style="stop-color:#11654E"/>
   <stop offset="1" style="stop-color:#0F5945"/>
  </linearGradient>
  <linearGradient id="id1" gradientUnits="userSpaceOnUse" x1="1720.38" y1="2708.27" x2="6788.97" y2="2708.27">
   <stop offset="0" style="stop-color:#2DF3C0"/>
   <stop offset="1" style="stop-color:#1F1B20"/>
  </linearGradient>
 </defs>
 <g id="Réteg_x0020_1">
  <metadata id="CorelCorpID_0Corel-Layer"/>
  <g id="_945367264">
   <polygon class="fil0" points="5391,3844 5098,3058 5391,2270 4966,2117 4626,3058 4975,4012 "/>
   <path class="fil1" d="M1720 5417l4719 0 0 -1573 -525 0 0 1049 -3671 0 0 -1573 524 0 0 1049 2622 0 0 -524 -2097 0 0 -525 1903 1 -93 -266 93 -259 -1902 -1 0 -524 2097 0 0 -525 -2622 0 0 1049c-349,0 -699,0 -1048,0l0 2622zm4719 -2097l0 -1957 -1907 -1101 0 0 0 0 -453 -262 -2359 1362 0 908 525 0 0 -606 1835 -1060 1175 679 0 0 660 381c0,1235 0,834 0,1651 874,0 -350,4 525,4z"/>
   <path class="fil2" d="M0 6668l210 0c89,0 158,22 209,67 44,39 66,85 66,140 0,46 -7,82 -22,108 -15,26 -36,46 -65,61 94,43 142,113 142,209 0,60 -24,113 -71,160 -57,55 -135,83 -232,83l-235 0 0 -826zm153 148l0 170 44 0c45,0 77,-5 95,-15 24,-13 36,-38 36,-77 0,-26 -11,-46 -33,-59 -22,-13 -52,-20 -88,-20l-52 0zm0 318l0 211 78 0c45,0 79,-8 103,-23 29,-19 44,-49 44,-92 0,-29 -13,-52 -40,-70 -26,-17 -59,-26 -98,-26l-87 0zm1394 -466l118 0 348 826 -167 0 -89 -213 -295 0 -92 213 -167 0 344 -826zm59 215l-87 249 176 0 -89 -249zm1334 -217l28 0c91,0 162,21 214,63 58,46 87,114 87,204 0,54 -15,102 -45,146 -38,56 -94,92 -170,109l224 305 -191 0 -217 -320 0 320 -153 0 0 -827 221 0zm-68 148l0 244 98 0c45,0 80,-11 107,-32 26,-21 40,-54 40,-99 0,-42 -17,-72 -50,-91 -27,-15 -64,-23 -112,-23l-83 0zm1117 -147l445 0 0 148 -292 0 0 191 279 0 0 148 -279 0 0 190 290 0 0 148 -443 0 0 -826zm1203 0l153 0 0 677 253 0 0 148 -406 0 0 -826zm1113 0l153 0 0 677 253 0 0 148 -406 0 0 -826zm1389 0l118 0 348 826 -167 0 -89 -213 -295 0 -92 213 -167 0 344 -826zm59 215l-87 249 176 0 -89 -249z"/>
   <g>
    <path class="fil2" d="M1563 8109l0 -33 -286 0 0 -171 308 0 0 -33 -341 0 0 430 341 0 0 -33 -308 0 0 -160 286 0zm129 42l0 -246 143 0c34,0 63,12 87,36 24,24 36,53 36,87 0,34 -12,63 -36,87 -24,24 -53,36 -87,36l-143 0zm-33 -279l0 429 33 0 0 -118 143 0c43,0 80,-15 110,-46 30,-30 46,-67 46,-110 0,-43 -15,-80 -46,-110 -30,-30 -67,-46 -110,-46l-176 0zm757 0l0 250c0,46 -16,85 -49,117 -32,32 -71,48 -117,48 -46,0 -85,-16 -117,-48 -32,-32 -48,-71 -48,-117l0 -250 -33 0 0 250c0,55 19,101 58,140 39,39 86,58 140,58 54,0 101,-19 140,-58 39,-39 58,-86 58,-140l0 -250 -33 0zm108 -1l0 430 341 0 0 -33 -308 0 0 -397 -33 0zm720 237l0 -33 -286 0 0 -171 308 0 0 -33 -341 0 0 430 341 0 0 -33 -308 0 0 -160 286 0zm81 -237l0 33 158 0 0 396 33 0 0 -396 158 0 0 -33 -348 0zm626 241l0 33 160 0c-9,30 -26,57 -50,81 -39,38 -85,58 -140,58 -55,0 -101,-19 -140,-58 -39,-39 -58,-86 -58,-140 0,-17 2,-33 5,-48 8,-35 26,-66 53,-93 39,-38 85,-58 140,-58 55,0 101,19 140,58 27,27 44,58 53,93l34 0c-9,-44 -30,-82 -63,-115 -45,-45 -100,-68 -163,-68 -64,0 -118,23 -163,68 -34,33 -55,72 -63,115 -3,15 -5,31 -5,48 0,64 23,118 68,163 45,45 100,68 163,68 64,0 118,-23 163,-68 31,-30 51,-65 61,-104 3,-11 5,-22 6,-33l-200 0zm581 -5l0 -33 -286 0 0 -171 308 0 0 -33 -341 0 0 430 341 0 0 -33 -308 0 0 -160 286 0zm129 42l0 -246 143 0c34,0 63,12 87,36 24,24 36,53 36,87 0,34 -12,63 -36,87 -24,24 -53,36 -87,36l-143 0zm-33 -279l0 429 33 0 0 -118 143 0c43,0 80,-15 110,-46 30,-30 46,-67 46,-110 0,-43 -15,-80 -46,-110 -30,-30 -67,-46 -110,-46l-176 0zm713 237l0 -33 -286 0 0 -171 308 0 0 -33 -341 0 0 430 341 0 0 -33 -308 0 0 -160 286 0zm250 210c-46,0 -85,-16 -118,-49 -33,-33 -49,-72 -49,-118l33 0c0,37 13,69 39,95 26,26 58,39 95,39 37,0 68,-13 95,-39 26,-26 39,-58 39,-95 0,-36 -13,-66 -40,-90 -11,-9 -24,-18 -41,-27 -7,-4 -14,-7 -23,-11l-23 -10c-32,-14 -53,-26 -65,-35 -19,-15 -29,-32 -29,-52 0,-20 7,-37 22,-52 15,-14 33,-21 54,-21 23,0 41,6 55,18 5,4 8,8 11,13 1,2 2,3 3,5 0,1 0,1 1,1l0 0 0 0 -30 13 0 0 0 -1c0,-1 -1,-1 -1,-2 -2,-2 -4,-4 -6,-6 -8,-6 -18,-8 -32,-8 -11,0 -21,4 -29,11 -9,8 -14,17 -14,29 0,10 7,20 20,29 9,7 28,16 54,28l12 5 12 6c9,4 18,9 25,13 19,10 35,21 48,33 33,30 50,68 50,113 0,46 -16,85 -49,118 -33,33 -72,49 -118,49zm214 -447l0 33 238 0 -238 397 300 0 0 -33 -238 0 238 -397 -300 0zm680 237l0 -33 -286 0 0 -171 308 0 0 -33 -341 0 0 430 341 0 0 -33 -308 0 0 -160 286 0zm81 -237l0 33 158 0 0 396 33 0 0 -396 158 0 0 -33 -348 0z"/>
    <polygon class="fil2" points="1386,7825 1436,7745 1470,7745 1415,7825 "/>
    <path class="fil2" d="M2169 7825l0 -39 34 0 0 39 -34 0zm115 0l0 -39 34 0 0 39 -34 0z"/>
    <polygon class="fil2" points="5164,7825 5215,7745 5249,7745 5194,7825 "/>
    <polygon class="fil2" points="4354,7825 4405,7745 4439,7745 4384,7825 "/>
   </g>
  </g>
 </g>
</svg>
