<?xml version="1.0" encoding="UTF-8"?>
<!DOCTYPE svg PUBLIC "-//W3C//DTD SVG 1.1//EN" "http://www.w3.org/Graphics/SVG/1.1/DTD/svg11.dtd">
<!-- Creator: CorelDRAW X6 -->
<svg xmlns="http://www.w3.org/2000/svg" xml:space="preserve" width="81.601mm" height="83.1998mm" version="1.1" style="shape-rendering:geometricPrecision; text-rendering:geometricPrecision; image-rendering:optimizeQuality; fill-rule:evenodd; clip-rule:evenodd"
viewBox="0 0 3356 3422"
 xmlns:xlink="http://www.w3.org/1999/xlink">
 <defs>
  <style type="text/css">
   <![CDATA[
    .fil0 {fill:url(#id0)}
    .fil1 {fill:url(#id1)}
    .fil3 {fill:url(#id2)}
    .fil2 {fill:url(#id3)}
   ]]>
  </style>
  <linearGradient id="id0" gradientUnits="userSpaceOnUse" x1="2065.34" y1="863.704" x2="2065.34" y2="1650.28">
   <stop offset="0" style="stop-color:#144F3E"/>
   <stop offset="0.0901961" style="stop-color:#145241"/>
   <stop offset="0.2" style="stop-color:#23C499"/>
   <stop offset="0.258824" style="stop-color:#26CCA0"/>
   <stop offset="0.431373" style="stop-color:black"/>
   <stop offset="0.54902" style="stop-color:#051813"/>
   <stop offset="0.768627" style="stop-color:#1CBF94"/>
   <stop offset="0.839216" style="stop-color:#22C79B"/>
   <stop offset="0.909804" style="stop-color:#11654E"/>
   <stop offset="1" style="stop-color:#0F5945"/>
  </linearGradient>
  <linearGradient id="id1" gradientUnits="userSpaceOnUse" x1="707.588" y1="1113.9" x2="2792.29" y2="1113.9">
   <stop offset="0" style="stop-color:#2DF3C0"/>
   <stop offset="1" style="stop-color:#1F1B20"/>
  </linearGradient>
  <linearGradient id="id2" gradientUnits="userSpaceOnUse" xlink:href="#id1" x1="511.613" y1="3303.83" x2="2844.61" y2="3303.83">
  </linearGradient>
  <linearGradient id="id3" gradientUnits="userSpaceOnUse" xlink:href="#id1" x1="-0" y1="2912.12" x2="3356.23" y2="2912.12">
  </linearGradient>
 </defs>
 <g id="Réteg_x0020_1">
  <metadata id="CorelCorpID_0Corel-Layer"/>
  <g id="_948723440">
   <polygon class="fil0" points="2217,1581 2097,1258 2217,934 2042,871 1903,1258 2046,1650 "/>
   <path class="fil1" d="M708 2228l1941 0 0 -647 -216 0 0 431 -1510 0 0 -647 215 0 0 431 1078 0 0 -216 -863 0 0 -216 783 0 -38 -109 38 -106 -782 0 0 -215 863 0 0 -216 -1078 0 0 431c-144,0 -287,0 -431,0l0 1078zm1941 -863l0 -805 -784 -453 0 0 0 0 -186 -108 -970 560 0 374 216 0 0 -249 755 -436 483 279 0 0 272 157c0,508 0,343 0,679 359,0 -144,1 216,1z"/>
   <path class="fil2" d="M0 2743l86 0c36,0 65,9 86,28 18,16 27,35 27,57 0,19 -3,34 -9,44 -6,11 -15,19 -27,25 39,18 58,46 58,86 0,25 -10,47 -29,66 -24,23 -55,34 -95,34l-97 0 0 -340zm63 61l0 70 18 0c19,0 32,-2 39,-6 10,-5 15,-16 15,-32 0,-11 -5,-19 -14,-24 -9,-5 -21,-8 -36,-8l-22 0zm0 131l0 87 32 0c18,0 32,-3 42,-10 12,-8 18,-20 18,-38 0,-12 -5,-21 -16,-29 -11,-7 -24,-11 -40,-11l-36 0zm573 -192l49 0 143 340 -69 0 -37 -88 -121 0 -38 88 -69 0 141 -340zm24 89l-36 102 73 0 -37 -102zm549 -89l11 0c37,0 67,9 88,26 24,19 36,47 36,84 0,22 -6,42 -18,60 -16,23 -39,38 -70,45l92 125 -78 0 -89 -132 0 132 -63 0 0 -340 91 0zm-28 61l0 101 40 0c18,0 33,-4 44,-13 11,-9 16,-22 16,-41 0,-17 -7,-30 -21,-37 -11,-6 -26,-9 -46,-9l-34 0zm459 -61l183 0 0 61 -120 0 0 78 115 0 0 61 -115 0 0 78 119 0 0 61 -182 0 0 -340zm495 0l63 0 0 279 104 0 0 61 -167 0 0 -340zm458 0l63 0 0 279 104 0 0 61 -167 0 0 -340zm571 0l49 0 143 340 -69 0 -37 -88 -121 0 -38 88 -69 0 141 -340zm24 89l-36 102 73 0 -37 -102z"/>
   <path class="fil3" d="M643 3335l0 -13 -118 0 0 -70 126 0 0 -14 -140 0 0 177 140 0 0 -14 -126 0 0 -66 118 0zm-73 -117l21 -33 14 0 -23 33 -12 0zm1221 0l21 -33 14 0 -23 33 -12 0zm333 0l21 -33 14 0 -23 33 -12 0zm-1232 0l0 -16 14 0 0 16 -14 0zm47 0l0 -16 14 0 0 16 -14 0zm-243 134l0 -101 59 0c14,0 26,5 36,15 10,10 15,22 15,36 0,14 -5,26 -15,36 -10,10 -22,15 -36,15l-59 0zm-14 -115l0 177 14 0 0 -48 59 0c18,0 33,-6 45,-19 13,-13 19,-28 19,-45 0,-18 -6,-33 -19,-45 -13,-13 -28,-19 -45,-19l-72 0zm311 0l0 103c0,19 -7,35 -20,48 -13,13 -29,20 -48,20 -19,0 -35,-7 -48,-20 -13,-13 -20,-29 -20,-48l0 -103 -14 0 0 103c0,22 8,42 24,58 16,16 35,24 58,24 22,0 42,-8 58,-24 16,-16 24,-35 24,-58l0 -103 -13 0zm44 0l0 177 140 0 0 -14 -126 0 0 -163 -14 0zm296 98l0 -13 -118 0 0 -70 126 0 0 -14 -140 0 0 177 140 0 0 -14 -126 0 0 -66 118 0zm33 -97l0 14 65 0 0 163 13 0 0 -163 65 0 0 -14 -143 0zm257 99l0 13 66 0c-4,12 -11,24 -20,34 -16,16 -35,24 -58,24 -22,0 -42,-8 -58,-24 -16,-16 -24,-35 -24,-58 0,-7 1,-13 2,-20 3,-14 11,-27 22,-38 16,-16 35,-24 58,-24 23,0 42,8 58,24 11,11 18,24 22,38l14 0c-4,-18 -12,-34 -26,-47 -19,-19 -41,-28 -67,-28 -26,0 -49,9 -67,28 -14,14 -22,29 -26,47 -1,6 -2,13 -2,20 0,26 9,49 28,67 19,19 41,28 67,28 26,0 49,-9 67,-28 13,-13 21,-27 25,-43 1,-4 2,-9 2,-13l-82 0zm239 -2l0 -13 -118 0 0 -70 126 0 0 -14 -140 0 0 177 140 0 0 -14 -126 0 0 -66 118 0zm53 17l0 -101 59 0c14,0 26,5 36,15 10,10 15,22 15,36 0,14 -5,26 -15,36 -10,10 -22,15 -36,15l-59 0zm-14 -115l0 177 14 0 0 -48 59 0c18,0 33,-6 45,-19 13,-13 19,-28 19,-45 0,-18 -6,-33 -19,-45 -13,-13 -28,-19 -45,-19l-72 0zm293 97l0 -13 -118 0 0 -70 126 0 0 -14 -140 0 0 177 140 0 0 -14 -126 0 0 -66 118 0zm103 86c-19,0 -35,-7 -49,-20 -13,-13 -20,-30 -20,-49l14 0c0,15 5,28 16,39 11,11 24,16 39,16 15,0 28,-5 39,-16 11,-11 16,-24 16,-39 0,-15 -6,-27 -17,-37 -4,-4 -10,-8 -17,-11 -3,-2 -6,-3 -9,-5l-10 -4c-13,-6 -22,-11 -27,-14 -8,-6 -12,-13 -12,-21 0,-8 3,-15 9,-21 6,-6 14,-9 22,-9 9,0 17,3 23,8 2,2 3,3 5,5 0,1 1,1 1,2 0,0 0,0 0,1l0 0 0 0 -12 5 0 0 0 0c0,0 0,-1 -1,-1 -1,-1 -2,-2 -3,-2 -3,-2 -8,-3 -13,-3 -5,0 -9,2 -12,5 -4,3 -6,7 -6,12 0,4 3,8 8,12 4,3 11,6 22,11l5 2 5 2c4,2 7,4 10,5 8,4 14,9 20,13 14,12 21,28 21,46 0,19 -7,35 -20,49 -13,13 -30,20 -49,20zm88 -184l0 14 98 0 -98 163 124 0 0 -14 -98 0 98 -163 -124 0zm280 98l0 -13 -118 0 0 -70 126 0 0 -14 -140 0 0 177 140 0 0 -14 -126 0 0 -66 118 0zm33 -97l0 14 65 0 0 163 13 0 0 -163 65 0 0 -14 -143 0z"/>
  </g>
 </g>
</svg>
