<svg xmlns="http://www.w3.org/2000/svg" viewBox="0 0 200 50">
  <path fill="#CCCCCC" d="M20,10 L35,10 C45,10 45,40 35,40 L20,40 Z M25,15 L25,35 L35,35 C40,35 40,15 35,15 Z" />
  <path fill="#CCCCCC" d="M50,40 L60,10 L70,40 L65,40 L63,33 L57,33 L55,40 Z M60,15 L58,28 L62,28 Z" />
  <path fill="#CCCCCC" d="M75,10 L80,10 L80,40 L75,40 Z" />
  <path fill="#CCCCCC" d="M90,10 L95,10 L95,22 L105,10 L110,10 L100,25 L110,40 L105,40 L95,28 L95,40 L90,40 Z" />
  <path fill="#CCCCCC" d="M115,10 L120,10 L120,40 L115,40 Z" />
  <path fill="#CCCCCC" d="M125,10 L130,10 L140,25 L140,10 L145,10 L145,40 L140,40 L130,25 L130,40 L125,40 Z" />
</svg>